<!DOCTYPE svg PUBLIC "-//W3C//DTD SVG 1.1//EN" "http://www.w3.org/Graphics/SVG/1.1/DTD/svg11.dtd">
<!-- Uploaded to: SVG Repo, www.svgrepo.com, Transformed by: SVG Repo Mixer Tools -->
<svg version="1.1" id="Layer_1" xmlns="http://www.w3.org/2000/svg" xmlns:xlink="http://www.w3.org/1999/xlink" viewBox="0 0 511.999 511.999" xml:space="preserve" width="800px" height="800px" fill="#000000">
<g id="SVGRepo_bgCarrier" stroke-width="0"/>
<g id="SVGRepo_tracerCarrier" stroke-linecap="round" stroke-linejoin="round"/>
<g id="SVGRepo_iconCarrier"> <g> <rect x="342.025" y="353.389" style="fill:#FAB929;" width="96.768" height="37.634"/> <rect x="73.206" y="353.389" style="fill:#FAB929;" width="96.768" height="37.634"/> </g> <g> <polygon style="fill:#5A5274;" points="293.634,407.149 293.634,503.922 218.365,503.922 218.365,482.417 "/> <polygon style="fill:#5A5274;" points="293.634,261.989 293.634,337.257 218.365,412.525 218.365,337.257 "/> <polygon style="fill:#5A5274;" points="293.634,181.344 293.634,192.097 218.365,267.366 218.365,181.344 "/> </g> <g> <polygon style="fill:#7BA376;" points="293.634,337.257 293.634,407.149 218.365,482.417 218.365,412.525 "/> <polygon style="fill:#7BA376;" points="293.634,192.097 293.634,261.989 218.365,337.257 218.365,267.366 "/> </g> <polygon style="fill:#444444;" points="67.829,116.83 444.17,116.83 444.17,181.344 293.634,181.344 218.365,181.344 67.829,181.344 "/> <polygon style="fill:#7BA376;" points="255.999,9.304 444.17,116.83 67.829,116.83 "/> <g> <polygon style="fill:#5A5274;" points="218.365,482.417 218.365,503.922 255.999,503.922 255.999,444.783 "/> <polygon style="fill:#5A5274;" points="255.999,299.623 218.365,337.257 218.365,412.525 255.999,374.891 "/> <polygon style="fill:#5A5274;" points="255.999,181.344 218.365,181.344 218.365,267.366 255.999,229.731 "/> </g> <g> <polygon style="fill:#7BA376;" points="255.999,374.891 218.365,412.525 218.365,482.417 255.999,444.783 "/> <polygon style="fill:#7BA376;" points="255.999,229.731 218.365,267.366 218.365,337.257 255.999,299.623 "/> </g> <polygon style="fill:#444444;" points="255.999,116.83 67.829,116.83 67.829,181.344 218.365,181.344 255.999,181.344 "/> <polygon style="fill:#7BA376;" points="255.999,9.304 67.829,116.83 255.999,116.83 "/> <path d="M255.999,0l-63.142,36.081l8.015,14.027l55.128-31.501l157.75,90.143H98.249l86.493-49.425l-8.015-14.027L59.751,112.141 v77.282h150.536v306.42H73.205v16.157h365.587v-16.157H226.444v-10.079l59.112-59.112v50.388h16.157v-66.545l0.323-0.323 l-0.323-0.323V189.423h150.536v-77.282L255.999,0z M285.555,333.911l-59.112,59.111v-52.417l59.112-59.112V333.911z M285.555,258.642l-59.112,59.112v-47.042l59.112-59.112V258.642z M226.444,247.861v-58.439h58.439L226.444,247.861z M226.444,462.913v-47.041l59.112-59.111v47.041L226.444,462.913z M75.908,173.266v-16.101h266.113v-16.157H75.908v-16.101H436.09 v48.358H75.908z"/> <rect x="229.122" y="71.122" width="53.763" height="16.157"/> <g> <rect x="293.63" y="71.122" style="fill:#FFFFFF;" width="21.506" height="16.157"/> <rect x="196.863" y="71.122" style="fill:#FFFFFF;" width="21.505" height="16.157"/> <rect x="358.149" y="141.005" style="fill:#FFFFFF;" width="37.634" height="16.157"/> </g> <path d="M86.633,208.226v137.082H65.127v53.79h112.931v-53.79h-21.506V208.226h-16.157v137.082h-37.606V208.226H86.633z M161.901,382.941H81.284v-21.477h80.617V382.941z"/> <path d="M425.366,208.226H409.21v137.082h-37.607V208.226h-16.157v137.082h-21.504v53.79h112.93v-53.79h-21.506V208.226H425.366z M430.714,382.941h-80.616v-21.477h80.616V382.941z"/> </g>
</svg>